<svg xmlns="http://www.w3.org/2000/svg" width="428" height="204" version="1.2" viewBox="0 0 321 153"><g style="fill:#2f3e46;fill-opacity:1"><path d="M1.531-21.156H8.11c1.977 0 3.555.43 4.735 1.281 1.176.844 1.765 2.215 1.765 4.11 0 2.117-.882 3.624-2.64 4.53 3.008.532 4.515 2.313 4.515 5.344 0 1.774-.617 3.2-1.843 4.282C13.41-.535 11.719 0 9.562 0h-8.03Zm4.828 8.281h.391c1.07 0 1.875-.188 2.406-.563.531-.374.797-.988.797-1.843 0-1.438-1.07-2.156-3.203-2.156h-.39Zm0 9.156h1.516c2.352 0 3.531-.785 3.531-2.36 0-.937-.297-1.609-.89-2.015-.586-.414-1.465-.625-2.641-.625H6.359Zm0 0" style="stroke:none" transform="translate(35.087 115.755)"/></g><g style="fill:#2f3e46;fill-opacity:1"><path d="M13.64-21.156v4.234H6.36v4.203h6.968v4.235H6.36v4.25h7.282V0H1.53v-21.156Zm0 0" style="stroke:none" transform="translate(60.11 115.755)"/></g><g style="fill:#2f3e46;fill-opacity:1"><path d="M6.36-21.156v16.922h7.28V0H1.532v-21.156Zm0 0" style="stroke:none" transform="translate(82.93 115.755)"/></g><g style="fill:#2f3e46;fill-opacity:1"><path d="M6.36-21.156v16.922h7.28V0H1.532v-21.156Zm0 0" style="stroke:none" transform="translate(105.364 115.755)"/></g><g style="fill:#2f3e46;fill-opacity:1"><path d="M12.281-21.156 20.812 0h-5.171l-1.563-4.234H6.031L4.47 0H-.72l8.547-21.156Zm.156 12.687-2.359-6.14h-.047l-2.36 6.14Zm0 0" style="stroke:none" transform="translate(127.798 115.755)"/></g><g style="fill:#2f3e46;fill-opacity:1"><path d="m19.031 0-1-12.531h-.14L13.563-.125h-2.876L6.36-12.531h-.125L5.234 0H.406l1.906-21.156h5.126l4.687 12.203 4.703-12.203h5.125L23.843 0Zm0 0" style="stroke:none" transform="translate(155.847 115.755)"/></g><g style="fill:#2f3e46;fill-opacity:1"><path d="M.594-10.594c0-3.05 1.039-5.633 3.125-7.75C5.8-20.469 8.313-21.53 11.25-21.53c2.957 0 5.469 1.058 7.531 3.172 2.07 2.105 3.11 4.695 3.11 7.765 0 3.094-1.016 5.7-3.047 7.813C16.812-.664 14.28.39 11.25.39 8.156.39 5.602-.656 3.594-2.75c-2-2.094-3-4.707-3-7.844Zm5.203 0c0 1.117.172 2.133.516 3.047.343.918.94 1.695 1.796 2.328.852.625 1.899.938 3.141.938 1.8 0 3.156-.614 4.063-1.844.914-1.227 1.374-2.719 1.374-4.469 0-1.719-.468-3.195-1.406-4.437-.93-1.239-2.273-1.86-4.031-1.86-1.742 0-3.086.621-4.031 1.86-.95 1.242-1.422 2.719-1.422 4.437Zm0 0" style="stroke:none" transform="translate(188.05 115.755)"/></g><g style="fill:#2f3e46;fill-opacity:1"><path d="M6.36-13.125V0H1.53v-21.156H6.36l8.407 13.125h.062v-13.125h4.813V0h-4.813L6.406-13.125Zm0 0" style="stroke:none" transform="translate(218.482 115.755)"/></g><g style="fill:#2f3e46;fill-opacity:1"><path d="M.203-16.922v-4.234h14.875v4.234h-5.031V0H5.234v-16.922Zm0 0" style="stroke:none" transform="translate(247.608 115.755)"/></g><g style="fill:#2f3e46;fill-opacity:1"><path d="M13.64-21.156v4.234H6.36v4.203h6.968v4.235H6.36v4.25h7.282V0H1.53v-21.156Zm0 0" style="stroke:none" transform="translate(270.837 115.755)"/></g><g style="fill:#d4a055;fill-opacity:1"><path d="M10.016-3.734C9.867-2.484 9.41-1.52 8.64-.844c-.774.668-1.797 1-3.079 1-1.398 0-2.511-.492-3.343-1.484-.836-1-1.25-2.332-1.25-4v-1.14c0-1.095.191-2.052.578-2.876.394-.832.945-1.469 1.656-1.906.719-.445 1.55-.672 2.5-.672 1.25 0 2.25.352 3 1.047.75.7 1.188 1.664 1.313 2.89H8.453c-.137-.937-.43-1.613-.875-2.03-.45-.426-1.074-.641-1.875-.641-1 0-1.781.37-2.344 1.11-.562.73-.843 1.773-.843 3.124v1.14c0 1.274.265 2.29.796 3.048.54.75 1.29 1.125 2.25 1.125.852 0 1.508-.192 1.97-.579.468-.394.773-1.078.921-2.046Zm0 0" style="stroke:none" transform="translate(98.087 141.502)"/></g><g style="fill:#d4a055;fill-opacity:1"><path d="M5.688-4.766H2.921V0H1.359v-11.766H5.25c1.32 0 2.336.305 3.047.907.719.605 1.078 1.484 1.078 2.64 0 .73-.2 1.367-.594 1.906-.398.543-.945.95-1.64 1.22l2.75 5V0H8.234ZM2.921-6.03h2.375c.77 0 1.383-.196 1.844-.594.457-.395.687-.926.687-1.594 0-.726-.219-1.285-.656-1.672-.438-.394-1.063-.593-1.875-.593H2.922Zm0 0" style="stroke:none" transform="translate(114.5 141.502)"/></g><g style="fill:#d4a055;fill-opacity:1"><path d="M8.016-5.438H2.922v4.172h5.922V0H1.359v-11.766h7.407v1.282H2.922v3.78h5.094Zm0 0" style="stroke:none" transform="translate(130.33 141.502)"/></g><g style="fill:#d4a055;fill-opacity:1"><path d="M7.86-3.063H2.936L1.829 0H.218l4.5-11.766h1.36L10.578 0H8.984Zm-4.454-1.28h4l-2.015-5.5Zm0 0" style="stroke:none" transform="translate(145.378 141.502)"/></g><g style="fill:#d4a055;fill-opacity:1"><path d="m3.375-11.766 3.844 9.594 3.843-9.594h2.016V0h-1.562v-4.578l.156-4.953L7.812 0H6.61L2.766-9.5l.156 4.922V0H1.359v-11.766Zm0 0" style="stroke:none" transform="translate(161.816 141.502)"/></g><g style="fill:#d4a055;fill-opacity:1"><path d="M8.016-5.438H2.922v4.172h5.922V0H1.359v-11.766h7.407v1.282H2.922v3.78h5.094Zm0 0" style="stroke:none" transform="translate(181.904 141.502)"/></g><g style="fill:#d4a055;fill-opacity:1"><path d="M5.688-4.766H2.921V0H1.359v-11.766H5.25c1.32 0 2.336.305 3.047.907.719.605 1.078 1.484 1.078 2.64 0 .73-.2 1.367-.594 1.906-.398.543-.945.95-1.64 1.22l2.75 5V0H8.234ZM2.921-6.03h2.375c.77 0 1.383-.196 1.844-.594.457-.395.687-.926.687-1.594 0-.726-.219-1.285-.656-1.672-.438-.394-1.063-.593-1.875-.593H2.922Zm0 0" style="stroke:none" transform="translate(196.952 141.502)"/></g><g style="fill:#d4a055;fill-opacity:1"><path d="m4.953-5.86 3.063-5.906H9.78L5.734-4.39V0H4.172v-4.39L.125-11.767h1.781Zm0 0" style="stroke:none" transform="translate(212.783 141.502)"/></g><path d="M39.21 78.105s37.993-30.19 44.724-27.816c6.734 2.375 24.355-25.34 29.898-20.789 5.543 4.555 6.73 13.066 12.473 9.309 5.742-3.766 38.011-38.809 44.347-31.68 6.336 7.125 20.989 26.926 28.512 25.539 7.524-1.387 10.492 9.441 15.84 9.473 5.344.03 11.086-14.817 16.629-11.254 5.543 3.562 12.87 10.691 18.808 15.84 5.942 5.148 33.067 32.273 29.106 31.378-3.961-.89-10.293-11.976-18.61-12.171-8.316-.2-10.496-3.368-5.347 1.976 5.148 5.348 11.879 12.672 2.375 4.754-9.5-7.922-10.692-5.941-18.215-12.871-7.523-6.93-6.531-10.691-15.047-11.879-8.512-1.187-11.578-2.871-7.226 1.879 4.355 4.754 7.128 8.812 7.128 8.812s4.754 7.13-1.98 0c-6.73-7.128-9.105-9.703-11.781-10.69-2.672-.993-4.551-6.04-4.649-6.731-.101-.696-.695-6.336-5.148-6.336-4.457 0-5.844.097-5.844 1.78 0 1.684-4.453-.296-5.84-1.483-1.383-1.192-20.394-26.926-22.074-23.86-1.684 3.07-.695 3.168-.695 5.742 0 2.575 5.547 5.743 7.82 10.297 2.277 4.551-.297.196 2.574 5.84 2.871 5.645 5.645 7.723-1.285 2.871-6.93-4.851-9.008-12.574-12.078-11.285-3.07 1.285-.496.793-2.078 5.047-1.582 4.258 1.484 0 1.387 6.14-.102 6.137 9.007 4.602 13.757 12.028 4.754 7.422 6.09 8.02 10.098 10.394 4.012 2.375 9.059 6.383 4.602 4.157-4.453-2.227-12.77-2.97-16.926-6.387-4.156-3.414-5.79-2.078-6.238 1.336-.442 3.418 6.386 2.23 5.793 5.496-.594 3.266 2.523 2.227 9.8 10.84 7.274 8.613 8.762 7.574 1.782 4.304-6.98-3.265-8.168-8.164-15.293-9.945-7.13-1.785-7.575-3.418-15.297-5.496-7.719-2.078-2.672 9.8-8.91 3.711-6.235-6.086-14.106-14.55-18.41-16.926-4.31-2.379-4.16-.594-8.02-4.16-3.86-3.562-6.535-5.84-4.899-1.953 1.633 3.883 5.047 7.3 6.977 11.605 1.93 4.309-.445 3.047.965 5.125 1.41 2.079 2.082 2.524 2.672 4.38.597 1.859.523 2.003-1.63-.15-2.155-2.151-3.046-2.226-3.269-3.71-.222-1.484-.222.297-3.785-2.078-3.566-2.38-5.2-3.79-9.058-4.754-3.86-.965-2.895-3.191-5.125-1.484-2.227 1.707-2.301-.297-3.043 2.226-.743 2.524 2.894 1.559 4.828 4.309 1.93 2.746-.817 1.336 5.047 5.64 5.867 4.309 2.82 3.118 5.941 5.868 3.117 2.746 5.566 2.746 7.422 5.863 1.86 3.117 4.308 7.277.668 3.414-3.637-3.86-4.082-4.305-7.793-4.602-3.715-.297-4.309 2.153-7.13-.593-2.82-2.747-11.21-2.227-14.772-6.16-3.567-3.938-6.461-9.356-12.254-6.981-5.79 2.375-9.723-2.524-12.176.668-2.45 3.191-.297.297 3.047 4.156 3.34 3.863 4.527 3.117 5.27 4.68.741 1.558.741.445-2.821-.817-3.563-1.261-1.856-1.707-3.563-1.261-1.71.445-5.199-5.496-12.254-.82-7.05 4.68-4.972.82-9.949 4.16-4.972 3.34-11.683 8.835-9.777 6.085" style="stroke:none;fill-rule:nonzero;fill:#2f3e46;fill-opacity:1"/></svg>